<svg xmlns="http://www.w3.org/2000/svg" width="15" height="14.72" viewBox="0 0 15 14.72">
  <g id="edit" transform="translate(-5.6 -6.9)">
    <g id="Group_107" data-name="Group 107" transform="translate(5.6 6.9)">
      <path id="Path_1" data-name="Path 1" d="M20.152,114.3H6.222a.524.524,0,0,0-.522.522.533.533,0,0,0,.522.522H20.165a.524.524,0,0,0,.522-.522A.536.536,0,0,0,20.152,114.3Z" transform="translate(-5.687 -100.624)" fill="#00b8a9"/>
      <path id="Path_2" data-name="Path 2" d="M5.613,15.953,5.6,18.436a.539.539,0,0,0,.153.382.51.51,0,0,0,.369.153l2.47-.013a.51.51,0,0,0,.369-.153l8.531-8.531a.538.538,0,0,0,0-.751l-2.445-2.47a.538.538,0,0,0-.751,0L12.591,8.772,5.766,15.584A.567.567,0,0,0,5.613,15.953Zm9.066-7.78L16.4,9.892l-.968.968L13.711,9.141ZM6.67,16.183l6.29-6.29,1.719,1.719-6.29,6.278L6.657,17.9Z" transform="translate(-5.6 -6.9)" fill="#00b8a9"/>
    </g>
  </g>
</svg>
