<svg xmlns="http://www.w3.org/2000/svg" width="16" height="16" viewBox="0 0 16 16">
  <path id="Shape_Copy" data-name="Shape Copy" d="M8,16a8,8,0,1,1,8-8A8.009,8.009,0,0,1,8,16ZM6.581,10.58a.387.387,0,0,0-.387.387v.775a.387.387,0,0,0,.387.387H9.419a.387.387,0,0,0,.387-.387v-.775a.387.387,0,0,0-.387-.387H9.032V7.355a.387.387,0,0,0-.387-.387H6.581a.387.387,0,0,0-.387.387v.774a.387.387,0,0,0,.387.387h.387V10.58ZM8,3.549A1.354,1.354,0,1,0,9.355,4.9,1.356,1.356,0,0,0,8,3.549Z" fill="#00b8a9"/>
</svg>
